<svg xmlns="http://www.w3.org/2000/svg" width="1440" height="726" viewBox="0 0 1440 726">
  <title>jumbotron</title>



<!-- ====== REPLACEMENT I — document/bookmark + dots (48×48 slot) ====== -->
<g id="REPLACEMENT_I" transform="translate(1400 80)" opacity="0.5">
  <!-- fit to 48×48: scale by 48/31.239 ≈ 1.53654; center horizontally by ~5.58px -->
  <g transform="translate(5.58 0) scale(1.3)">
    <g transform="translate(0.777 8.221)">
      <path fill="#ffffff" d="M56.313,306.488H77.437a.5.5,0,0,0,.5-.51V287.083a.948.948,0,0,0-.935-.961l-17.94-.259a2.763,2.763,0,0,1-2.324-1.353h0a.5.5,0,0,0-.919.268v21.2A.5.5,0,0,0,56.313,306.488Z" transform="translate(-55.816 -284.268)"/>
    </g>
    <g transform="translate(2.328 11.338)">
      <path fill="#b1c5e3" d="M64.018,318.936H83.331a.452.452,0,0,0,.454-.449V301.861a.85.85,0,0,0-.855-.845l-16.4-.228a4.13,4.13,0,0,1-2.965-.955v18.654A.452.452,0,0,0,64.018,318.936Z" transform="translate(-63.564 -299.833)"/>
    </g>
    <g transform="translate(2.328 11.338)">
      <path fill="#e4ebf5" d="M63.961,318.936H80.839a.425.425,0,0,0,.4-.449V301.861a.837.837,0,0,0-.751-.88l-14.329-.194a4.325,4.325,0,0,1-2.591-.955v18.654A.425.425,0,0,0,63.961,318.936Z" transform="translate(-63.564 -299.833)"/>
    </g>
    <g transform="translate(5.133 9.641)">
      <path fill="#0096a6" d="M84.42,291.352v11.009l-3.336-2.744-3.52,2.9v-11.16Z" transform="translate(-77.564 -291.352)"/>
    </g>
    <g transform="translate(13.291 24.936)">
      <g transform="translate(5.663)"><ellipse fill="#4b7ac0" cx="1.046" cy="1.046" rx="1.046" ry="1.046"/></g>
      <g transform="translate(2.832)"><ellipse fill="#4b7ac0" cx="1.046" cy="1.046" rx="1.046" ry="1.046"/></g>
      <ellipse fill="#4b7ac0" cx="1.046" cy="1.046" rx="1.046" ry="1.046"/>
    </g>
    <path fill="#e4ebf5" d="M73.59,252.388H57.129a4.013,4.013,0,0,1-3.995-3.972h0V248.4s0,0,0-.007v-.007a4.011,4.011,0,0,1,4-3.973H75.309a.6.6,0,1,0,0-1.2H57.158a5.213,5.213,0,0,0-5.226,5.189c0,.007,0,.017,0,.026v24a2.029,2.029,0,0,0,2.033,2.021H73.59a2.029,2.029,0,0,0,2.033-2.021V254.409A2.029,2.029,0,0,0,73.59,252.388Zm.831,20.043a.826.826,0,0,1-.831.82H53.966a.826.826,0,0,1-.831-.82V251.706a5.232,5.232,0,0,0,4.024,1.884H73.59a.826.826,0,0,1,.831.82Z" transform="translate(-51.932 -243.213)"/>
    <path fill="#e4ebf5" d="M96.057,266.124H78.477a.6.6,0,0,0,0,1.2H96.057a.6.6,0,0,0,0-1.2Z" transform="translate(-72.681 -261.536)"/>
  </g>
</g>

  <!-- ====== REPLACEMENT J — curved speech icon (48×48 slot) ====== -->
<g id="REPLACEMENT_J" transform="translate(1170 130)">
  <!-- fit to 48×48: scale ≈ 1.534 (48 / 31.26) -->
  <g transform="translate(5.5 0) scale(1.3)">
    <g transform="translate(14.809 12.125)">
      <path fill="#0096a6" d="M117.016,98.581a6.421,6.421,0,0,0-1.434-.082h-.105c-.351,0-.549-.114-.361-.479a3.153,3.153,0,0,1,2.736-1.8.14.14,0,0,0,.094-.022.127.127,0,0,0,.035-.07q.251-.823.505-1.645a.315.315,0,0,0-.3-.417l-.465.008a4.415,4.415,0,0,0-1.467.276,4.913,4.913,0,0,0-2.881,2.925c-.325.905-.5,2.075.35,2.749a2.723,2.723,0,0,0,1.737.5,8.475,8.475,0,0,1,1.051.02.259.259,0,0,1,.127.044c.09.075.045.221-.015.321a3.007,3.007,0,0,1-1.826,1.2,7.823,7.823,0,0,1-2.112.244,3.6,3.6,0,0,1-2.226-.646c-1.039-.835-.875-2.477-.557-3.619.012-.047.09-.266.187-.534a1.391,1.391,0,0,0-.745-1.747.062.062,0,0,0-.015-.007.5.5,0,0,0-.669.27,17.746,17.746,0,0,0-.806,2.284c-.474,2.172.147,4.588,2.326,5.557a4.057,4.057,0,0,0,.46.171,5.042,5.042,0,0,0,.507.132c.176.039.36.069.549.092s.383.043.584.057.407.02.619.02q3.431-.008,4.935-1.9a3.132,3.132,0,0,0,.7-2.04A1.846,1.846,0,0,0,117.016,98.581Z" transform="translate(-107.7 -94.065)"/>
    </g>
    <g transform="translate(10.965 23.176)"><rect fill="#e4ebf5" width="4.005" height="1.001"/></g>
    <g transform="translate(5.617 23.176)"><rect fill="#e4ebf5" width="4.005" height="1.001"/></g>
    <g transform="translate(5.617 5.648)">
      <path fill="#4b7ac0" d="M70.18,62.732l-.283-.594a.722.722,0,0,0-.918-.366,3.876,3.876,0,0,1-2.01.359l-1.8-.292a3.368,3.368,0,0,0-3.2,1.266.707.707,0,0,0-.03.881l.372.51a.707.707,0,0,0,1.063.076,2.065,2.065,0,0,1,1.782-.531l1.693.247a4.4,4.4,0,0,0,3.122-.56A.749.749,0,0,0,70.18,62.732ZM66.2,65.138l-.395.068a1.073,1.073,0,0,0-.89,1.1l.395,10.77a1.076,1.076,0,0,0,1.072,1.034,1.073,1.073,0,0,0,1.074-1.074V66.2A1.072,1.072,0,0,0,66.2,65.138Z" transform="translate(-61.799 -61.72)"/>
    </g>
    <g transform="translate(21.637 9.582)"><rect fill="#e4ebf5" width="4.005" height="1.001"/></g>
    <g transform="translate(16.291 9.582)"><rect fill="#e4ebf5" width="4.005" height="1.001"/></g>
    <g transform="translate(0 0.015)">
      <path fill="#e4ebf5" d="M34.35,44.834a.6.6,0,0,1-.6-.6V40.2a6.616,6.616,0,0,1,6.608-6.608h4.062a.6.6,0,0,1,0,1.2H40.357A5.413,5.413,0,0,0,34.951,40.2v4.033A.6.6,0,0,1,34.35,44.834Z" transform="translate(-33.749 -33.592)"/>
    </g>
    <g transform="translate(20.018)">
      <path fill="#e4ebf5" d="M144.355,44.79a.6.6,0,0,1-.6-.6V40.127a5.413,5.413,0,0,0-5.407-5.407h-4.033a.6.6,0,0,1,0-1.2h4.033a6.616,6.616,0,0,1,6.608,6.608v4.062A.6.6,0,0,1,144.355,44.79Z" transform="translate(-133.714 -33.519)"/>
    </g>
    <g transform="translate(19.989 20.064)">
      <path fill="#e4ebf5" d="M138.23,144.953h-4.062a.6.6,0,0,1,0-1.2h4.062a5.413,5.413,0,0,0,5.407-5.407v-4.033a.6.6,0,1,1,1.2,0v4.033A6.616,6.616,0,0,1,138.23,144.953Z" transform="translate(-133.567 -133.711)"/>
    </g>
    <g transform="translate(0 20.049)">
      <path fill="#e4ebf5" d="M44.39,144.909H40.357a6.616,6.616,0,0,1-6.608-6.608v-4.062a.6.6,0,1,1,1.2,0V138.3a5.413,5.413,0,0,0,5.407,5.407H44.39a.6.6,0,0,1,0,1.2Z" transform="translate(-33.749 -133.638)"/>
    </g>
  </g>
</g>
<!-- ====== REPLACEMENT K — dual-window layout icon (48×48 slot) ====== -->
<g id="REPLACEMENT_K" transform="translate(400 500)" opacity="0.8">
  <!-- fit to 48×48: scale ≈ 1.546 (48 / 31.04) -->
  <g transform="translate(4.8 0) scale(1.3)">
    <g transform="translate(5.547 0.5)">
      <rect fill="#fff" width="24.992" height="24.964" rx="3"/>
      <g transform="translate(3.054 2.683)">
        <path fill="#b1c5e3" d="M729.188,263.358V280.15a2.746,2.746,0,0,1-2.745,2.743H709.993a2.744,2.744,0,0,1-2.743-2.743V263.358a2.744,2.744,0,0,1,2.743-2.745h16.449A2.746,2.746,0,0,1,729.188,263.358Z" transform="translate(-707.25 -260.613)"/>
      </g>
      <g transform="translate(3.054 2.684)">
        <rect fill="#e4ebf5" width="19.555" height="19.927" rx="2.5"/>
      </g>
    </g>
    <g transform="translate(5.047)">
      <path fill="#e4ebf5" d="M712.248,270.678h-19.5a3.249,3.249,0,0,1-3.245-3.245V247.958a3.249,3.249,0,0,1,3.245-3.245h19.5a3.249,3.249,0,0,1,3.245,3.245v19.475A3.249,3.249,0,0,1,712.248,270.678Zm-19.5-24.964a2.246,2.246,0,0,0-2.244,2.244v19.475a2.246,2.246,0,0,0,2.244,2.244h19.5a2.246,2.246,0,0,0,2.244-2.244V247.958a2.246,2.246,0,0,0-2.244-2.244Z" transform="translate(-689.5 -244.713)"/>
    </g>
    <g transform="translate(10.52 4.959)">
      <rect fill="#4b7ac0" width="12.556" height="1.001" transform="translate(0.024 5.033)"/>
      <rect fill="#4b7ac0" width="12.556" height="1.001" transform="translate(0.024)"/>
      <rect fill="#4b7ac0" width="8.348" height="1.001" transform="translate(4.199 15.046)"/>
      <rect fill="#4b7ac0" width="12.547" height="1.001" transform="translate(0 10.04)"/>
      <rect fill="#0d96a6" width="1.005" height="1.001" transform="translate(14.044 5.033)"/>
      <rect fill="#0d96a6" width="1.005" height="1.001" transform="translate(14.044)"/>
      <rect fill="#0d96a6" width="1.004" height="1.001" transform="translate(14.042 10.04)"/>
      <rect fill="#0d96a6" width="1.004" height="1.001" transform="translate(14.042 15.046)"/>
    </g>
    <g transform="translate(0.5 15.271)">
      <rect fill="#fff" width="15.019" height="15.019" rx="3"/>
    </g>
    <g transform="translate(0.959 17.24)">
      <path fill="#99d5db" d="M683.651,333.547v7.562a2.746,2.746,0,0,1-2.745,2.746h-9.07a2.746,2.746,0,0,1-2.745-2.746v-7.562a2.744,2.744,0,0,1,2.745-2.743h9.07A2.744,2.744,0,0,1,683.651,333.547Z" transform="translate(-669.09 -330.803)"/>
    </g>
    <g transform="translate(0.959 17.24)">
      <path fill="#cceaed" d="M682.068,332.655v7.966a1.852,1.852,0,0,1-1.852,1.852h-9.272a1.854,1.854,0,0,1-1.854-1.852v-7.966a1.854,1.854,0,0,1,1.854-1.852h9.272A1.852,1.852,0,0,1,682.068,332.655Z" transform="translate(-669.09 -330.803)"/>
    </g>
    <g transform="translate(5.342 18.508)">
      <g transform="translate(1.639 6.979)">
        <path fill="#0096a6" d="M700.856,372.875a.85.85,0,1,1-1.7,0,.849.849,0,1,1,1.7,0Z" transform="translate(-699.16 -371.987)"/>
      </g>
      <path fill="#0096a6" d="M696.176,339.327a2.5,2.5,0,0,1-1.048,1.873,2.269,2.269,0,0,0-.976,1.8l.006.117-.1.062a1.365,1.365,0,0,1-.654.133,1.294,1.294,0,0,1-.671-.146l-.07-.047-.014-.086a2.423,2.423,0,0,1,1.05-2.182c.435-.416.808-.773.808-1.268a.992.992,0,0,0-1.1-1.017,2.065,2.065,0,0,0-1.436.683l-.018.016a.215.215,0,0,1-.156.068.855.855,0,0,1-.533-.269c-.225-.22-.379-.527-.24-.687a3.287,3.287,0,0,1,2.518-1.243C694.817,337.137,696.176,337.713,696.176,339.327Z" transform="translate(-690.975 -337.137)"/>
    </g>
    <g transform="translate(0 14.77)">
      <path fill="#0d96a6" d="M677.075,334.493h-9.53a3.249,3.249,0,0,1-3.245-3.245v-9.53a3.249,3.249,0,0,1,3.245-3.245h9.53a3.249,3.249,0,0,1,3.245,3.245v9.53A3.249,3.249,0,0,1,677.075,334.493Zm-9.53-15.019a2.246,2.246,0,0,0-2.244,2.244v9.53a2.246,2.246,0,0,0,2.244,2.244h9.53a2.247,2.247,0,0,0,2.244-2.244v-9.53a2.246,2.246,0,0,0-2.244-2.244Z" transform="translate(-664.3 -318.473)"/>
    </g>
  </g>
</g>
<!-- ====== REPLACEMENT L — double-chart / twin-bubble icon (48×48 slot) ====== -->
<g id="REPLACEMENT_L" transform="translate(0 70)" opacity="0.7">
  <!-- fit to 48×48: scale ≈ 1.552 (48 / 30.946) -->
  <g transform="translate(4.7 0) scale(1.3)">
    <g transform="translate(14.184 0.6)">
      <path fill="#fff" d="M540.907,255.2A7.97,7.97,0,0,1,533,263.2h-7.907V255.2a8,8,0,0,1,4.724-7.317,7.857,7.857,0,0,1,6.366,0,8,8,0,0,1,4.724,7.317Z" transform="translate(-525.093 -247.213)"/>
    </g>
    <g transform="translate(15.336 2.174)">
      <path fill="#99d5db" d="M545.519,262.815a8.019,8.019,0,0,1-.618,3.115,7.335,7.335,0,0,1-6.719,4.631h-7.337v-7.746a7.776,7.776,0,0,1,4.383-7.091,7.005,7.005,0,0,1,5.907,0A7.538,7.538,0,0,1,544.9,259.7,8.02,8.02,0,0,1,545.519,262.815Z" transform="translate(-530.845 -255.071)"/>
    </g>
    <g transform="translate(15.18 2.24)">
      <path fill="#cceaed" d="M543.422,262.569a7.533,7.533,0,0,1-.563,2.884,6.68,6.68,0,0,1-6.115,4.288h-6.678v-7.173a7.214,7.214,0,0,1,3.99-6.566,6.277,6.277,0,0,1,5.377,0,6.931,6.931,0,0,1,3.427,3.682A7.533,7.533,0,0,1,543.422,262.569Z" transform="translate(-530.066 -255.398)"/>
    </g>
    <g transform="translate(13.188)">
      <path fill="#0096a6" d="M529,261.972h-8.878v-8.88a8.879,8.879,0,1,1,8.878,8.88Zm-7.677-1.2H529a7.678,7.678,0,1,0-7.677-7.678Z" transform="translate(-520.122 -244.213)"/>
    </g>
    <g transform="translate(16.912 7.648)">
      <ellipse fill="#343a40" cx="1.37" cy="1.37" rx="1.37" ry="1.37"/>
      <g transform="translate(3.709)"><ellipse fill="#343a40" cx="1.37" cy="1.37" rx="1.37" ry="1.37"/></g>
      <g transform="translate(7.418)"><ellipse fill="#343a40" cx="1.37" cy="1.37" rx="1.37" ry="1.37"/></g>
    </g>
    <g transform="translate(0.762 12.709)">
      <path fill="#fff" d="M458.07,316.368a8.522,8.522,0,0,0,.739,3.493,8.766,8.766,0,0,0,8.022,5.194h8.76v-8.688a8.773,8.773,0,0,0-16.782-3.493A8.522,8.522,0,0,0,458.07,316.368Z" transform="translate(-458.07 -307.683)"/>
    </g>
    <g transform="translate(2.156 13.951)">
      <path fill="#b1c5e3" d="M465.038,321.945a7.973,7.973,0,0,0,.68,3.244,8.065,8.065,0,0,0,7.383,4.823h8.063v-8.067a8.063,8.063,0,0,0-15.446-3.244A7.973,7.973,0,0,0,465.038,321.945Z" transform="translate(-465.038 -313.88)"/>
    </g>
    <g transform="translate(2.156 13.982)">
      <path fill="#e4ebf5" d="M465.038,321.939a8.287,8.287,0,0,0,.622,3.178,7.379,7.379,0,0,0,6.756,4.726h7.378v-7.9a7.948,7.948,0,0,0-4.408-7.236,6.95,6.95,0,0,0-5.94,0,7.645,7.645,0,0,0-3.786,4.058A8.287,8.287,0,0,0,465.038,321.939Z" transform="translate(-465.038 -314.036)"/>
    </g>
    <g transform="translate(0 11.553)">
      <path fill="#343a40" d="M473.549,321.193h-9.641a9.643,9.643,0,1,1,9.641-9.643Zm-9.641-18.084a8.441,8.441,0,0,0,0,16.883h8.44V311.55A8.45,8.45,0,0,0,463.908,303.109Z" transform="translate(-454.265 -301.907)"/>
    </g>
    <g transform="translate(4.105 19.701)">
      <g transform="translate(8.087)"><ellipse fill="#4b7ac0" cx="1.494" cy="1.494" rx="1.494" ry="1.494"/></g>
      <g transform="translate(4.043)"><ellipse fill="#4b7ac0" cx="1.494" cy="1.494" rx="1.494" ry="1.494"/></g>
      <ellipse fill="#4b7ac0" cx="1.494" cy="1.494" rx="1.494" ry="1.494"/>
    </g>
  </g>
</g>
<!-- ====== REPLACEMENT M — twin leaves / insights icon (48×48 slot) ====== -->
<g id="REPLACEMENT_M" transform="translate(300 50)">
  <!-- fit to 48×48: scale ≈ 1.534 (48 / 31.26); کمی جابه‌جایی افقی برای وسط‌چین -->
  <g transform="translate(5.5 0) scale(1.3)">
    <g transform="translate(16.707 9.461)">
      <path fill="#fff" d="M750.342,86.078a3.058,3.058,0,0,1,.565-1.113.928.928,0,0,1,.111-.134q1.165-1.182,2.372-2.364a1,1,0,0,0,.2-1.155.975.975,0,0,0-1.019-.538.987.987,0,0,0-.483.219q-.782.658-1.5,1.343a11.172,11.172,0,0,0-3.043,4.269,9.212,9.212,0,0,0-.37,2.432,4.261,4.261,0,0,0,.922,2.9A2.807,2.807,0,0,0,750.281,93a2.456,2.456,0,0,0,1.811-.779c.069-.068.136-.138.2-.206a2.7,2.7,0,0,0,.818-1.82q0-1.738-2.287-3.049a.988.988,0,0,1-.489-.994C750.336,86.124,750.338,86.1,750.342,86.078Z" transform="translate(-747.176 -80.765)"/>
    </g>
    <g transform="translate(8.047 9.461)">
      <path fill="#fff" d="M707.1,86.078a3.053,3.053,0,0,1,.565-1.113.91.91,0,0,1,.11-.134q1.165-1.182,2.372-2.364a1,1,0,0,0,.2-1.155.975.975,0,0,0-1.019-.538.987.987,0,0,0-.483.219q-.782.658-1.5,1.343a11.171,11.171,0,0,0-3.043,4.269,9.218,9.218,0,0,0-.37,2.432,4.261,4.261,0,0,0,.922,2.9A2.807,2.807,0,0,0,707.037,93a2.456,2.456,0,0,0,1.811-.779c.069-.068.136-.138.2-.206a2.7,2.7,0,0,0,.818-1.82q0-1.738-2.288-3.049a.988.988,0,0,1-.489-.994C707.091,86.124,707.094,86.1,707.1,86.078Z" transform="translate(-703.932 -80.765)"/>
    </g>
    <g transform="translate(7.402 8.909)">
      <g transform="translate(1.927 2.102)">
        <path fill="#b1c5e3" d="M712.752,92.5a2.283,2.283,0,0,1,.431-.837.707.707,0,0,1,.084-.1q.889-.889,1.81-1.778a.745.745,0,0,0-.627-1.273.756.756,0,0,0-.368.165q-.6.5-1.141,1.011a8.4,8.4,0,0,0-2.322,3.212,6.841,6.841,0,0,0-.282,1.83,3.178,3.178,0,0,0,.7,2.18,2.154,2.154,0,0,0,1.666.8,1.888,1.888,0,0,0,1.382-.586c.053-.051.1-.1.15-.155a2.02,2.02,0,0,0,.624-1.369q0-1.308-1.745-2.294a.74.74,0,0,1-.373-.748C712.747,92.532,712.749,92.514,712.752,92.5Z" transform="translate(-710.336 -88.5)"/>
      </g>
      <path fill="#4b7ac0" d="M705.538,83.124a.746.746,0,0,1,.054-.062c.775-.775,1.594-1.58,2.437-2.393a1.547,1.547,0,0,0-.755-2.629,1.457,1.457,0,0,0-.322-.034,1.552,1.552,0,0,0-.989.358c-.547.453-1.077.921-1.576,1.394a11.745,11.745,0,0,0-3.276,4.58,9.834,9.834,0,0,0-.4,2.609,4.825,4.825,0,0,0,1.085,3.3,3.444,3.444,0,0,0,2.653,1.26,3.088,3.088,0,0,0,2.247-.947,3.436,3.436,0,0,0,1.208-2.443c0-1.382-.887-2.583-2.633-3.569a.458.458,0,0,1-.23-.463l.008-.06A2.6,2.6,0,0,1,705.538,83.124Zm-.8,2.371c1.38.781,2.081,1.662,2.081,2.623a1.635,1.635,0,0,1-.088.515,2.976,2.976,0,0,1-.793,1.151,2.019,2.019,0,0,1-1.488.639,2.375,2.375,0,0,1-1.84-.893,3.74,3.74,0,0,1-.813-2.583,8.742,8.742,0,0,1,.356-2.309,10.914,10.914,0,0,1,2.984-4.1c.473-.447.983-.9,1.516-1.342a.483.483,0,0,1,.3-.108.445.445,0,0,1,.1.012.453.453,0,0,1,.314.244.458.458,0,0,1-.094.541l-.382.37c-.667.647-1.364,1.33-2.067,2.035a1.463,1.463,0,0,0-.172.2,3.47,3.47,0,0,0-.675,1.358l-.014.086A1.553,1.553,0,0,0,704.739,85.495Z" transform="translate(-700.712 -78.005)"/>
      <g transform="translate(10.585 2.089)">
        <path fill="#99d5db" d="M755.988,92.438a2.35,2.35,0,0,1,.433-.839.684.684,0,0,1,.084-.1q.892-.892,1.813-1.782a.747.747,0,0,0-1-1.11c-.4.33-.781.669-1.144,1.012a8.444,8.444,0,0,0-2.325,3.217,6.912,6.912,0,0,0-.281,1.831,3.19,3.19,0,0,0,.7,2.185,2.16,2.16,0,0,0,1.668.8,1.9,1.9,0,0,0,1.385-.586c.053-.053.1-.1.154-.157a2.033,2.033,0,0,0,.621-1.371q0-1.31-1.749-2.3a.741.741,0,0,1-.371-.748C755.983,92.474,755.986,92.456,755.988,92.438Z" transform="translate(-753.57 -88.436)"/>
      </g>
      <g transform="translate(8.665)">
        <path fill="#0096a6" d="M748.808,83.124a.389.389,0,0,1,.054-.062c.779-.781,1.6-1.586,2.435-2.4a1.547,1.547,0,0,0-.753-2.627,1.471,1.471,0,0,0-.322-.034,1.544,1.544,0,0,0-.989.358c-.557.459-1.085.929-1.578,1.394a11.716,11.716,0,0,0-3.274,4.58,9.834,9.834,0,0,0-.4,2.609,4.834,4.834,0,0,0,1.083,3.3,3.448,3.448,0,0,0,2.655,1.26,3.084,3.084,0,0,0,2.245-.947,3.431,3.431,0,0,0,1.21-2.443c0-1.382-.887-2.583-2.633-3.569a.457.457,0,0,1-.232-.455l.01-.07A2.538,2.538,0,0,1,748.808,83.124Zm-.8,2.371c1.38.781,2.079,1.662,2.079,2.623a1.583,1.583,0,0,1-.086.513,2.975,2.975,0,0,1-.793,1.153l-.006.006a2.005,2.005,0,0,1-1.482.633,2.369,2.369,0,0,1-1.84-.893,3.74,3.74,0,0,1-.813-2.583,8.7,8.7,0,0,1,.356-2.311,10.9,10.9,0,0,1,2.984-4.1c.471-.449.981-.9,1.516-1.342a.46.46,0,0,1,.3-.108.386.386,0,0,1,.1.012.451.451,0,0,1,.316.246.464.464,0,0,1-.092.537l-.2.192-.17.166c-.7.679-1.4,1.37-2.083,2.049a1.558,1.558,0,0,0-.176.206,3.5,3.5,0,0,0-.673,1.36l-.012.08A1.555,1.555,0,0,0,748.009,85.495Z" transform="translate(-743.982 -78.005)"/>
      </g>
    </g>
    <g transform="translate(0 0.015)">
      <path fill="#b1c5e3" d="M664.35,44.834a.6.6,0,0,1-.6-.6V40.2a6.616,6.616,0,0,1,6.608-6.608h4.062a.6.6,0,1,1,0,1.2h-4.062a5.413,5.413,0,0,0-5.407,5.407v4.033A.6.6,0,0,1,664.35,44.834Z" transform="translate(-663.749 -33.592)"/>
    </g>
    <g transform="translate(20.018)">
      <path fill="#b1c5e3" d="M774.355,44.79a.6.6,0,0,1-.6-.6V40.127a5.413,5.413,0,0,0-5.407-5.407h-4.033a.6.6,0,0,1,0-1.2h4.033a6.616,6.616,0,0,1,6.608,6.608v4.062A.6.6,0,0,1,774.355,44.79Z" transform="translate(-763.714 -33.519)"/>
    </g>
    <g transform="translate(19.989 20.064)">
      <path fill="#b1c5e3" d="M768.23,144.953h-4.062a.6.6,0,0,1,0-1.2h4.062a5.413,5.413,0,0,0,5.407-5.407v-4.033a.6.6,0,1,1,1.2,0v4.033A6.616,6.616,0,0,1,768.23,144.953Z" transform="translate(-763.567 -133.711)"/>
    </g>
    <g transform="translate(0 20.049)">
      <path fill="#b1c5e3" d="M674.39,144.909h-4.032a6.616,6.616,0,0,1-6.608-6.608v-4.062a.6.6,0,1,1,1.2,0V138.3a5.413,5.413,0,0,0,5.407,5.407h4.032a.6.6,0,1,1,0,1.2Z" transform="translate(-663.749 -133.638)"/>
    </g>
  </g>
</g>
<!-- ====== REPLACEMENT N — segmented blocks icon (48×48 slot) ====== -->
<g id="REPLACEMENT_N" transform="translate(100 250)" opacity="0.9">
  <g transform="scale(1.3)">
    <g transform="translate(17.779 10.535)">
      <path fill="#fff" d="M0,0H2.808A4.425,4.425,0,0,1,7.233,4.425v0H0V0Z"/>
    </g>
    <g transform="translate(17.779 16.367)">
      <path fill="#fff" d="M0,0H7.233A4.3,4.3,0,0,1,2.933,4.3H0V0Z"/>
    </g>
    <g transform="translate(6.238 16.367)">
      <path fill="#fff" d="M0,0H3.052A4.283,4.283,0,0,1,7.335,4.283H0V0Z" transform="translate(7.335 4.283) rotate(-180)"/>
    </g>
    <g transform="translate(6.301 10.672)">
      <path fill="#fff" d="M0,0H7.273A4.288,4.288,0,0,1,2.985,4.288H0V0Z" transform="translate(7.273 4.288) rotate(-180)"/>
    </g>
    <g transform="translate(17.779 11.805)">
      <path fill="#99d5db" d="M0,0H3.072A3.155,3.155,0,0,1,6.227,3.155H0V0Z"/>
    </g>
    <g transform="translate(17.805 16.367)">
      <path fill="#66c0c9" d="M0,0H6.2A3.345,3.345,0,0,1,2.858,3.345H0V0Z"/>
    </g>
    <g transform="translate(7.496 11.805)">
      <path fill="#b1c5e3" d="M0,0H6.077A3.155,3.155,0,0,1,2.922,3.155H0V0Z" transform="translate(6.077 3.155) rotate(-180)"/>
    </g>
    <g transform="translate(7.475 16.367)">
      <path fill="#7ea0d2" d="M0,0H2.729A3.345,3.345,0,0,1,6.073,3.345H0V0Z" transform="translate(6.073 3.345) rotate(-180)"/>
    </g>
    <g transform="translate(5.555 9.998)">
      <path fill="#4b7ac0" d="M272.259,88.4h-1a4.968,4.968,0,0,1,4.962-4.963h3.056v1H276.22A3.965,3.965,0,0,0,272.259,88.4Z" transform="translate(-271.258 -83.435)"/>
    </g>
    <g transform="translate(17.773 9.998)">
      <path fill="#0096a6" d="M340.3,88.4h-1a3.966,3.966,0,0,0-3.961-3.961h-3.056v-1h3.056A4.968,4.968,0,0,1,340.3,88.4Z" transform="translate(-332.278 -83.435)"/>
    </g>
    <g transform="translate(17.773 16.363)">
      <path fill="#0096a6" d="M335.335,120.187h-3.056v-1h3.056a3.966,3.966,0,0,0,3.961-3.961h1A4.968,4.968,0,0,1,335.335,120.187Z" transform="translate(-332.278 -115.224)"/>
    </g>
    <g transform="translate(5.555 16.363)">
      <path fill="#4b7ac0" d="M279.277,120.187H276.22a4.968,4.968,0,0,1-4.962-4.963h1a3.965,3.965,0,0,0,3.961,3.961h3.056Z" transform="translate(-271.258 -115.224)"/>
    </g>
    <g transform="translate(15.176 21.68)"><rect fill="#e4ebf5" width="1.001" height="4.005"/></g>
    <g transform="translate(15.176 16.334)"><rect fill="#e4ebf5" width="1.001" height="4.005"/></g>
    <g transform="translate(15.176 10.986)"><rect fill="#e4ebf5" width="1.001" height="4.005"/></g>
    <g transform="translate(15.176 5.639)"><rect fill="#e4ebf5" width="1.001" height="4.005"/></g>
    <g transform="translate(0 0.015)">
      <path fill="#e4ebf5" d="M244.118,44.825a.6.6,0,0,1-.6-.6V40.191a6.616,6.616,0,0,1,6.608-6.608h4.062a.6.6,0,1,1,0,1.2h-4.062a5.413,5.413,0,0,0-5.407,5.407v4.033A.6.6,0,0,1,244.118,44.825Z" transform="translate(-243.517 -33.583)"/>
    </g>
    <g transform="translate(20.018)">
      <path fill="#e4ebf5" d="M354.122,44.781a.6.6,0,0,1-.6-.6V40.118a5.413,5.413,0,0,0-5.407-5.407h-4.033a.6.6,0,1,1,0-1.2h4.033a6.616,6.616,0,0,1,6.608,6.608V44.18A.6.6,0,0,1,354.122,44.781Z" transform="translate(-343.481 -33.51)"/>
    </g>
    <g transform="translate(19.989 20.064)">
      <path fill="#e4ebf5" d="M348,144.943h-4.062a.6.6,0,0,1,0-1.2H348a5.413,5.413,0,0,0,5.407-5.407V134.3a.6.6,0,1,1,1.2,0v4.033A6.616,6.616,0,0,1,348,144.943Z" transform="translate(-343.335 -133.701)"/>
    </g>
    <g transform="translate(0 20.049)">
      <path fill="#e4ebf5" d="M254.158,144.9h-4.032a6.616,6.616,0,0,1-6.608-6.608V134.23a.6.6,0,1,1,1.2,0v4.062a5.413,5.413,0,0,0,5.407,5.407h4.032a.6.6,0,1,1,0,1.2Z" transform="translate(-243.517 -133.629)"/>
    </g>
  </g>
</g>
<!-- ====== REPLACEMENT O — زگbell/profile silhouette (48×48 slot) ====== -->
<g id="REPLACEMENT_O" transform="translate(1400 400)" opacity="0.4">
  <!-- fit to 48×48: scale = 48 / 30.766 ≈ 1.56016; center horizontally ≈ 3.37px -->
  <g transform="translate(3.365 0) scale(1.3)">
    <g transform="translate(7.981 26.234)">
      <path fill="#fff" d="M925.6,374.666h0c2.563,5.238,7.929,5.238,10.492,0h0" transform="translate(-925.604 -374.666)"/>
    </g>
    <g transform="translate(9.934 26.234)">
      <path fill="#b1c5e3" d="M935.36,374.666h0c2.086,3.791,6.452,3.791,8.538,0h0" transform="translate(-935.36 -374.666)"/>
    </g>
    <g transform="translate(0.997 0.644)">
      <path fill="#fff" d="M890.735,265.966v-.355a6.269,6.269,0,0,1,.877-2.945,8.218,8.218,0,0,0,1.754-3.749c0-1.079,0-2.174.085-3.255a9.8,9.8,0,0,1,9.653-8.793h.114a9.838,9.838,0,0,1,9.673,8.793c.085,1.079,0,2.174.071,3.255a8.364,8.364,0,0,0,1.747,3.764,6.106,6.106,0,0,1,.877,2.931v.339a6.174,6.174,0,0,1-1.234,3.872,6.352,6.352,0,0,1-4.175,2.221,59.5,59.5,0,0,1-14.056,0,6.421,6.421,0,0,1-4.166-2.221A6.237,6.237,0,0,1,890.735,265.966Z" transform="translate(-890.734 -246.869)"/>
    </g>
    <g transform="translate(3.79 1.372)">
      <path fill="#99d5db" d="M904.669,269.044V268.7a6.667,6.667,0,0,1,.413-2.062,4.868,4.868,0,0,1,.566-1.071,8.2,8.2,0,0,0,1.151-2.46,5.636,5.636,0,0,0,.206-1.518c0-.848.014-1.7.075-2.547.385-5.047,4.5-8.535,8.569-8.535h.1c4.067,0,8.183,3.488,8.587,8.535.061.851.023,1.712.04,2.567a5.53,5.53,0,0,0,.151,1.2,8.431,8.431,0,0,0,1.233,2.78,5.118,5.118,0,0,1,.642,1.29,6.529,6.529,0,0,1,.326,1.817v.329a6.663,6.663,0,0,1-.352,2.282,5.482,5.482,0,0,1-1.957,2.651,5.175,5.175,0,0,1-2.493.982,48.337,48.337,0,0,1-12.477,0,5.185,5.185,0,0,1-2.241-.82,5.52,5.52,0,0,1-2.274-3.074A6.765,6.765,0,0,1,904.669,269.044Z" transform="translate(-904.668 -250.506)"/>
    </g>
    <g transform="translate(3.063 3.218)">
      <path fill="#cceaed" d="M901.049,276.594v-.313a5.863,5.863,0,0,1,.718-2.6,7.521,7.521,0,0,0,1.436-3.312c0-.953,0-1.921.069-2.875a8.281,8.281,0,0,1,7.9-7.767h.093a8.308,8.308,0,0,1,7.919,7.767c.042.572.033,1.148.033,1.724a7.4,7.4,0,0,0,.961,3.736,7.03,7.03,0,0,0,.5.739,5.705,5.705,0,0,1,.718,2.589v.3a5.75,5.75,0,0,1-1.01,3.421,5.1,5.1,0,0,1-3.418,1.962,45.167,45.167,0,0,1-11.507,0A5.154,5.154,0,0,1,902.049,280,5.811,5.811,0,0,1,901.049,276.594Z" transform="translate(-901.048 -259.725)"/>
    </g>
    <g transform="translate(5.047 2.917)">
      <path fill="#343a40" d="M911.253,266.933l-.034,0a.3.3,0,0,1-.265-.332,11.075,11.075,0,0,1,3.062-6.545l.016-.015a7.16,7.16,0,0,1,5.118-1.8.3.3,0,0,1-.034.6,6.554,6.554,0,0,0-4.68,1.648,10.474,10.474,0,0,0-2.884,6.182A.3.3,0,0,1,911.253,266.933Z" transform="translate(-910.952 -258.225)"/>
    </g>
    <path fill="#343a40" d="M912.2,263.364v-.339c0-.008,0-.016,0-.025a6.649,6.649,0,0,0-.981-3.228.634.634,0,0,0-.05-.07c-.059-.07-.116-.141-.172-.213a7.353,7.353,0,0,1-1.495-4.511v-.222c0-.57,0-1.158-.043-1.751a10.04,10.04,0,0,0-3.55-6.761,10.782,10.782,0,0,0-6.876-2.595h-.116c-4.623,0-9.916,3.578-10.406,9.361-.05.631-.076,1.3-.085,2.176a7.059,7.059,0,0,1-1.47,4.287c-.056.071-.114.142-.173.211a.625.625,0,0,0-.056.077,6.824,6.824,0,0,0-.978,3.236c0,.009,0,.018,0,.027v.35a6.792,6.792,0,0,0,1.363,4.233l.027.033a7.149,7.149,0,0,0,4.613,2.424c.49.057.981.108,1.472.153,1.328,2.668,3.42,4.2,5.75,4.2s4.423-1.53,5.751-4.2c.479-.045.958-.094,1.436-.15a7.079,7.079,0,0,0,4.635-2.427l.023-.028A6.712,6.712,0,0,0,912.2,263.364Zm-13.225,9.849a5.191,5.191,0,0,1-4.316-2.879q2.151.15,4.308.151t4.326-.152A5.192,5.192,0,0,1,898.979,273.213Zm10.907-6.353a5.888,5.888,0,0,1-3.848,2.011,60.823,60.823,0,0,1-14.149,0,5.954,5.954,0,0,1-3.83-2.009,5.588,5.588,0,0,1-1.1-3.47s0-.008,0-.011v-.342a5.621,5.621,0,0,1,.78-2.613c.058-.069.115-.139.17-.209a8.265,8.265,0,0,0,1.727-5.019c.008-.845.033-1.49.08-2.089.432-5.1,5.116-8.258,9.208-8.258h.116c4.086,0,8.776,3.158,9.229,8.255.043.537.041,1.076.039,1.646v.224a8.559,8.559,0,0,0,1.748,5.251q.084.108.171.213a5.45,5.45,0,0,1,.78,2.6v.34A5.521,5.521,0,0,1,909.886,266.861Z" transform="translate(-885.753 -243.649)"/>
  </g>
</g>
<!-- ====== REPLACEMENT P — diagonal gear عدد+ drill icon (48×48 slot) ====== -->
<g id="REPLACEMENT_P" transform="translate(1150 450)">
  <!-- scale برای فیت شدن در ۴۸×۴۸ -->
  <g transform="scale(1.3)">
    <g transform="translate(0 0.015)">
      <path fill="#e4ebf5" d="M874.35,44.834a.6.6,0,0,1-.6-.6V40.2a6.616,6.616,0,0,1,6.608-6.608h4.062a.6.6,0,1,1,0,1.2h-4.062a5.413,5.413,0,0,0-5.407,5.407v4.033A.6.6,0,0,1,874.35,44.834Z" transform="translate(-873.749 -33.592)"/>
    </g>
    <g transform="translate(20.018)">
      <path fill="#e4ebf5" d="M984.355,44.79a.6.6,0,0,1-.6-.6V40.127a5.413,5.413,0,0,0-5.407-5.407h-4.033a.6.6,0,1,1,0-1.2h4.033a6.616,6.616,0,0,1,6.608,6.608v4.062A.6.6,0,0,1,984.355,44.79Z" transform="translate(-973.714 -33.519)"/>
    </g>
    <g transform="translate(19.989 20.064)">
      <path fill="#e4ebf5" d="M978.23,144.953h-4.062a.6.6,0,0,1,0-1.2h4.062a5.413,5.413,0,0,0,5.407-5.407v-4.033a.6.6,0,1,1,1.2,0v4.033A6.616,6.616,0,0,1,978.23,144.953Z" transform="translate(-973.567 -133.711)"/>
    </g>
    <g transform="translate(0 20.049)">
      <path fill="#e4ebf5" d="M884.39,144.909h-4.032a6.616,6.616,0,0,1-6.608-6.608v-4.062a.6.6,0,1,1,1.2,0V138.3a5.413,5.413,0,0,0,5.407,5.407h4.032a.6.6,0,1,1,0,1.2Z" transform="translate(-873.749 -133.638)"/>
    </g>
    <g transform="translate(8.188 19.514)">
      <rect fill="#e4ebf5" width="4.005" height="1.001" transform="translate(0 2.832) rotate(-45)"/>
    </g>
    <g transform="translate(11.969 15.732)">
      <rect fill="#e4ebf5" width="4.005" height="1.001" transform="translate(0 2.832) rotate(-45)"/>
    </g>
    <g transform="translate(15.75 11.951)">
      <rect fill="#e4ebf5" width="4.005" height="1.001" transform="translate(0 2.832) rotate(-45)"/>
    </g>
    <g transform="translate(19.531 8.17)">
      <rect fill="#e4ebf5" width="4.005" height="1.001" transform="translate(0 2.832) rotate(-45)"/>
    </g>
    <g transform="translate(18.527 15.287)">
      <path fill="#0d96a6" d="M973.368,110.882a2.033,2.033,0,0,1-.1.543q-.1.349-.265.788t-.362.92q-.2.481-.4.92l-.362.816q-.168.376-.265.586-.181.418-.46,1.053t-.6,1.3q-.321.662-.662,1.241a5.508,5.508,0,0,1-.634.9.913.913,0,0,1-.7.321.728.728,0,0,1-.516-.2.673.673,0,0,1-.209-.516,3.525,3.525,0,0,1,.188-1.032q.188-.6.446-1.22T969,116.1q.278-.585.474-1,.362-.822.725-1.624t.725-1.624q-.2-.028-.411-.042c-.144-.009-.281-.014-.411-.014a10.491,10.491,0,0,0-1.457.1q-.746.1-1.443.244a1.152,1.152,0,0,1-.209.014.719.719,0,0,1-.523-.2.683.683,0,0,1-.2-.516.839.839,0,0,1,.23-.586,1.907,1.907,0,0,1,.6-.425,4.376,4.376,0,0,1,.823-.286q.453-.111.892-.181a8.108,8.108,0,0,1,.816-.091q.376-.021.6-.021t.69.035q.453.035.934.111a5.773,5.773,0,0,1,.885.209,1.011,1.011,0,0,1,.544.341.3.3,0,0,1,.077.16Q973.368,110.784,973.368,110.882Z" transform="translate(-966.272 -109.85)"/>
    </g>
    <g transform="translate(5.617 5.645)">
      <path fill="#4b7ac0" d="M905.709,72.33a2.348,2.348,0,0,1-1.8-.8,2.563,2.563,0,0,1-.619-1.189.112.112,0,0,0-.008-.057L901.8,61.727a2.691,2.691,0,0,1,.35-.024,2.249,2.249,0,0,1,1.221.407,1.877,1.877,0,0,1,.757,1.246l1.116,6.466q.1.489.464.489.375-.016.456-.456a.137.137,0,0,0,.008-.033l1.116-6.458a1.95,1.95,0,0,1,.757-1.238,1.911,1.911,0,0,1,1.2-.415,2.016,2.016,0,0,1,.375.033l-1.482,8.567a2.432,2.432,0,0,1-.9,1.482A2.385,2.385,0,0,1,905.709,72.33Z" transform="translate(-901.8 -61.703)"/>
    </g>
  </g>
</g>
<!-- ====== REPLACEMENT Q — clipboard/tools icon (48×48 slot) ====== -->
<g id="REPLACEMENT_Q" transform="translate(0 450)" opacity="0.5">
  <!-- Fit to 48×48: scale ≈ 48 / 31.305 ≈ 1.533 -->
  <g transform="scale(1.3)">
    <g transform="translate(0.501 0.481)">
      <path fill="#fff" d="M254.954,246.311H265.66a6.2,6.2,0,0,1,6.171,6.1v17.743a6.029,6.029,0,0,1-5.872,6.176q-.149,0-.3,0H252.8a6.117,6.117,0,0,1-6-6.174v-15.21Z" transform="translate(-246.8 -246.291)"/>
      <path fill="#fff" d="M246.84,255.182h4.432a4.179,4.179,0,0,0,4.135-4.211v-4.757" transform="translate(-246.832 -246.213)"/>
    </g>
    <path fill="#b1c5e3" d="M252.94,300.253h12.409c3.391,0,4.357-2.749,4.357-6.14l-.167-13.617a4.312,4.312,0,0,0-4.306-4.259l-10.043-.012c-.927,2.606-3.71,3.5-8.389,2.642v15.247A6.14,6.14,0,0,0,252.94,300.253Z" transform="translate(-246.3 -269.734)"/>
    <path fill="#e4ebf5" d="M260.553,298.982h11.536c3.153,0,4.051-2.411,4.051-5.384l-.155-13.585a3.9,3.9,0,0,0-4-3.735l-9.949-.011c0,4.343-2.473,4.707-7.187,4.707V293.6A5.553,5.553,0,0,0,260.553,298.982Z" transform="translate(-252.734 -269.769)"/>
    <path fill="#343a40" d="M270.332,250.4a6.731,6.731,0,0,0-6.645-6.588H252.954a.5.5,0,0,0-.364.157l-8.154,8.632a.5.5,0,0,0-.137.344v15.209a6.638,6.638,0,0,0,6.5,6.675h12.84q.106,0,.212,0h.112a6.535,6.535,0,0,0,6.364-6.677Zm-17.356-5.38v4.031a3.784,3.784,0,0,1-3.734,3.811h-3.673Zm16.355,23.143a5.534,5.534,0,0,1-5.38,5.667c-.091,0-.182,0-.29,0H250.809a5.633,5.633,0,0,1-5.508-5.673V253.66h3.941a4.586,4.586,0,0,0,4.534-4.612v-4.237h9.908a5.723,5.723,0,0,1,5.646,5.6Z" transform="translate(-244.3 -243.81)"/>
    <g transform="translate(12.28 2.969)">
      <path fill="#fff" d="M327.89,334.14l.027-.077a3.2,3.2,0,0,1,4.1-1.94l6.283,2.244a3.2,3.2,0,0,1,1.94,4.1l-.027.077" transform="translate(-323.431 -317.258)"/>
      <path fill="#fff" d="M361.289,321.263h0l-1.094,3.064-3.064-1.094,1.095-3.064h0" transform="translate(-346.815 -307.848)"/>
      <line x1="3.063" y1="1.094" transform="translate(11.41 12.322)" style="stroke:#fff;stroke-width:1px;fill:none"/>
      <path fill="#fff" d="M365.663,272.056l4.041-11.314a1.516,1.516,0,0,0-.918-1.939l-.205-.073a1.517,1.517,0,0,0-1.939.919l-.3.837-3.651,10.222-.09.255" transform="translate(-351.19 -258.64)"/>
      <path fill="#fff" d="M365.662,321.265h0l-3.063-1.094h0" transform="translate(-351.189 -307.849)"/>
      <path fill="#fff" d="M310.081,342.944a12.1,12.1,0,0,1-4.459,6.654L317.94,354c2.683-1.037,3.993-3.429,4.459-6.654" transform="translate(-305.622 -326.062)"/>
      <line x2="12.318" y2="4.4" transform="translate(4.459 16.882)" style="stroke:#fff;stroke-width:1px;fill:none"/>
    </g>
    <path fill="#78c4cd" d="M340.584,340.395l6.1,2.27-.344,1.966-10.353-3.407.664-.705a1.68,1.68,0,0,1,1.057-.52A7.327,7.327,0,0,1,340.584,340.395Z" transform="translate(-317.628 -320.72)"/>
    <path fill="#78c4cd" d="M369.94,265.481,365.3,278.645l-1.956-.623,4.828-14.317a.6.6,0,0,1,.519-.354h0a2.772,2.772,0,0,1,.735.028C370.576,263.578,370.261,264.6,369.94,265.481Z" transform="translate(-339.503 -259.429)"/>
    <path fill="#e5f4f6" d="M316.957,352.735a10.686,10.686,0,0,1-3.963,4.872l11.152,3.916c2.46-.829,3.69-2.824,4.165-5.535l-10.468-3.676A.7.7,0,0,0,316.957,352.735Z" transform="translate(-299.237 -330.552)"/>
    <g transform="translate(10.516 9.993)"><rect fill="#0d96a6" width="10.011" height="1.001"/></g>
    <g transform="translate(5.509 20.004)"><rect fill="#0d96a6" width="5.009" height="1.001"/></g>
    <g transform="translate(5.507 14.999)"><rect fill="#0d96a6" width="15.021" height="1.001"/></g>
    <path fill="#343a40" d="M322.912,259.28a1.917,1.917,0,0,0-1.161-2.452l-.205-.073a1.92,1.92,0,0,0-2.451,1.161l-3.951,11.06-.087.246,0,.007L314.063,272l-1.324-.473a3.61,3.61,0,0,0-4.607,2.182l-.028.077h0c0,.009,0,.017-.006.026s-.006.015-.007.023a11.693,11.693,0,0,1-4.324,6.431.4.4,0,0,0,.121.685l12.318,4.4a.4.4,0,0,0,.135.023.4.4,0,0,0,.144-.027c2.629-1.016,4.167-3.282,4.7-6.926l.016-.044a3.61,3.61,0,0,0-2.183-4.608l-1.14-.407.991-2.774Zm-3.063-1.1a1.118,1.118,0,0,1,1.428-.676l.205.073a1.115,1.115,0,0,1,.676,1.427l-3.906,10.938-2.309-.824Zm-3.517,26.365-2.17-.775a12,12,0,0,0,1.6-2.022,8.2,8.2,0,0,0,1.165-3.073,8,8,0,0,1-1.492,2.843,11.882,11.882,0,0,1-2.065,1.971l-2.262-.808a12.372,12.372,0,0,0,1.695-2.379,8.2,8.2,0,0,0,.965-3.142,8,8,0,0,1-1.306,2.932,12.2,12.2,0,0,1-2.166,2.3l-2.459-.878a12.219,12.219,0,0,0,1.748-2.168,8.2,8.2,0,0,0,1.165-3.073,8,8,0,0,1-1.492,2.843,12.109,12.109,0,0,1-2.243,2.105l-2.214-.791a12.292,12.292,0,0,0,3.96-5.981l11.585,4.138C319.835,281.692,318.519,283.648,316.332,284.55Zm2.42-10.021a2.808,2.808,0,0,1,1.786,3.277l-11.527-4.117a2.807,2.807,0,0,1,3.458-1.4Zm-1.594-1.518-2.31-.825.825-2.309,2.31.825Z" transform="translate(-291.741 -254.074)"/>
  </g>
</g>
<!-- ====== REPLACEMENT R — cog/gear outline (48×48 slot) ====== -->
<g id="REPLACEMENT_R" transform="translate(1000 30)">
  <!-- Fit to 48×48: scale ≈ 48 / 16.05 = 2.99065
       Center horizontally: (48 - 15.252*2.99065)/2 ≈ 1.19 -->
  <g transform="translate(1.19 0) scale(1.9)">
    <path fill="#0096a6" d="M95.291,54.5a2.686,2.686,0,0,0-2.624,2.737,2.656,2.656,0,0,0,2.672,2.624H95.4a2.681,2.681,0,0,0-.1-5.361Zm.024,4.253a1.488,1.488,0,0,1-1.461-1.517,1.471,1.471,0,0,1,1.485-1.461h.032a1.489,1.489,0,0,1-.056,2.977Z" transform="translate(-87.717 -49.207)"/>
    <path fill="#e4ebf5" d="M101.682,57.953a2.05,2.05,0,0,0-.827-1.156l-.136-.08a.953.953,0,0,1-.449-.562.921.921,0,0,1,.1-.682.886.886,0,0,1,.265-.281l.209-.128a2.043,2.043,0,0,0,.706-2.568l-.04-.088c-.016-.024-.024-.048-.04-.072l-.49-.835a2.143,2.143,0,0,0-2.721-.843l-.128.072a.987.987,0,0,1-.5.136.9.9,0,0,1-.778-.441.851.851,0,0,1-.12-.337l-.008-.112a1.981,1.981,0,0,0-.594-1.445,2.125,2.125,0,0,0-1.509-.626h-1a2.143,2.143,0,0,0-1.485.6,2.05,2.05,0,0,0-.6,1.284l-.008.152a.92.92,0,0,1-.923.907.986.986,0,0,1-.337-.08l-.112-.056a2.033,2.033,0,0,0-1.019-.265,2.138,2.138,0,0,0-1.83,1.035l-.522.835a2.041,2.041,0,0,0,.618,2.737l.12.08a.9.9,0,0,1,.482.794.886.886,0,0,1-.393.738l-.088.048a2.045,2.045,0,0,0-.827,2.648l.072.128.514.867a2.048,2.048,0,0,0,1.26.971,2.156,2.156,0,0,0,1.437-.1l.144-.072a.958.958,0,0,1,.49-.136,1.146,1.146,0,0,1,.233.024.965.965,0,0,1,.554.417.838.838,0,0,1,.112.337l.008.12a1.967,1.967,0,0,0,.594,1.4,2.139,2.139,0,0,0,1.509.626h1a2.1,2.1,0,0,0,2.1-1.894l.008-.136a.9.9,0,0,1,.265-.666.911.911,0,0,1,.642-.265h.008a.987.987,0,0,1,.345.08l.112.056a2.054,2.054,0,0,0,1.019.265,2.134,2.134,0,0,0,1.733-.891l.08-.12.53-.859A2.039,2.039,0,0,0,101.682,57.953Zm-1.244.987-.514.843-.064.088a.9.9,0,0,1-.738.369.985.985,0,0,1-.369-.08l-.257-.128a2.15,2.15,0,0,0-.835-.193h-.016a2.092,2.092,0,0,0-1.493.6,2.054,2.054,0,0,0-.618,1.461v.088a.906.906,0,0,1-.915.8h-1a.906.906,0,0,1-.915-.8l-.016-.281a1.938,1.938,0,0,0-.273-.827,2.079,2.079,0,0,0-1.268-.947,2.1,2.1,0,0,0-1.6.209l-.088.04a.831.831,0,0,1-.345.072.9.9,0,0,1-.257-.04.922.922,0,0,1-.554-.425l-.506-.851-.048-.088a.877.877,0,0,1,.385-1.132l.12-.08a2.075,2.075,0,0,0,.931-1.709,2.037,2.037,0,0,0-.923-1.709l-.209-.128a.886.886,0,0,1-.257-1.18l.522-.835a.943.943,0,0,1,.811-.465.877.877,0,0,1,.449.12l.16.08a1.917,1.917,0,0,0,.7.185A2.087,2.087,0,0,0,92.709,50.1l.008-.249a.919.919,0,0,1,.907-.794h1a.957.957,0,0,1,.658.273.915.915,0,0,1,.265.658l.008.2a1.87,1.87,0,0,0,.273.819,2.1,2.1,0,0,0,1.284.947,2.153,2.153,0,0,0,1.589-.217l.08-.04.088-.04a1.08,1.08,0,0,1,.281-.04.94.94,0,0,1,.8.457l.465.8.008.024.064.1a.887.887,0,0,1-.385,1.14l-.128.08a2.122,2.122,0,0,0-.634.674,2.035,2.035,0,0,0-.217,1.557,2.076,2.076,0,0,0,.859,1.172l.217.136A.892.892,0,0,1,100.438,58.94Z" transform="translate(-86.5 -47.906)"/>
  </g>
</g>
<!-- ====== REPLACEMENT S — مدادنورscrewdriver & gear icon (48×48 slot) ====== -->
<g id="REPLACEMENT_S" transform="translate(260 400)" opacity="0.5">
  <!-- Fit to 48×48: scale ≈ 48 / 31.32 = 1.532 -->
  <g transform="scale(1.3)">
    <g transform="translate(7.57 11.168)">
      <rect fill="#fff" width="3.114" height="14.263" rx="1" transform="translate(10.086 0) rotate(45)"/>
    </g>
    <g transform="translate(8.486 12.719)">
      <rect fill="#b1c5e3" width="1.819" height="13.362" rx="0.5" transform="translate(9.449 0) rotate(45)"/>
    </g>
    <g transform="translate(16.1 5.635)">
      <rect fill="#99d5db" width="1.615" height="4.538" rx="0.808"/>
    </g>
    <g transform="translate(17.715 18.15)">
      <rect fill="#99d5db" width="1.615" height="4.538" rx="0.808"/>
    </g>
    <g transform="translate(8.354 11.949)">
      <rect fill="#99d5db" width="1.615" height="4.538" rx="0.808" transform="translate(0 1.615) rotate(-90)"/>
    </g>
    <g transform="translate(19.48 7.287)">
      <rect fill="#66c0c9" width="1.615" height="4.538" rx="0.808" transform="translate(3.209 0) rotate(45)"/>
    </g>
    <g transform="translate(21.107 13.564)">
      <rect fill="#99d5db" width="1.615" height="4.538" rx="0.808" transform="translate(4.538 0) rotate(90)"/>
    </g>
    <g transform="translate(19.652 15.814)">
      <rect fill="#66c0c9" width="1.615" height="4.538" rx="0.808" transform="translate(4.351 3.209) rotate(135)"/>
    </g>
    <g transform="translate(10.715 7.199)">
      <rect fill="#66c0c9" width="1.615" height="4.538" rx="0.808" transform="translate(4.351 3.209) rotate(135)"/>
    </g>
    <path fill="#4b7ac0" d="M494.59,90.866a1.238,1.238,0,0,0-.365-.882L493.237,89a1.247,1.247,0,0,0-1.764,0l-9.309,9.309a1.249,1.249,0,0,0,0,1.764l.987.987a1.25,1.25,0,0,0,1.764,0h0l6.648-6.649.007-.006.006-.007,2.647-2.647A1.238,1.238,0,0,0,494.59,90.866ZM484.3,100.438a.373.373,0,0,1-.527,0l-.987-.987a.373.373,0,0,1,0-.527l6.346-6.346,1.513,1.514Zm9.309-9.309-2.345,2.345-1.513-1.514,2.344-2.344a.372.372,0,0,1,.527,0l.987.987a.372.372,0,0,1,0,.526Z" transform="translate(-474.395 -77.52)"/>
    <g transform="translate(0 0.015)">
      <path fill="#e4ebf5" d="M454.35,44.834a.6.6,0,0,1-.6-.6V40.2a6.616,6.616,0,0,1,6.608-6.608h4.062a.6.6,0,0,1,0,1.2h-4.062a5.413,5.413,0,0,0-5.407,5.407v4.033A.6.6,0,0,1,454.35,44.834Z" transform="translate(-453.749 -33.592)"/>
    </g>
    <g transform="translate(20.018)">
      <path fill="#e4ebf5" d="M564.355,44.79a.6.6,0,0,1-.6-.6V40.127a5.413,5.413,0,0,0-5.407-5.407h-4.033a.6.6,0,0,1,0-1.2h4.033a6.616,6.616,0,0,1,6.608,6.608v4.062A.6.6,0,0,1,564.355,44.79Z" transform="translate(-553.714 -33.519)"/>
    </g>
    <g transform="translate(19.989 20.064)">
      <path fill="#e4ebf5" d="M558.23,144.953h-4.062a.6.6,0,1,1,0-1.2h4.062a5.413,5.413,0,0,0,5.407-5.407v-4.033a.6.6,0,1,1,1.2,0v4.033A6.616,6.616,0,0,1,558.23,144.953Z" transform="translate(-553.567 -133.711)"/>
    </g>
    <g transform="translate(0 20.049)">
      <path fill="#e4ebf5" d="M464.39,144.909h-4.033a6.616,6.616,0,0,1-6.608-6.608v-4.062a.6.6,0,1,1,1.2,0V138.3a5.413,5.413,0,0,0,5.407,5.407h4.033a.6.6,0,0,1,0,1.2Z" transform="translate(-453.749 -133.638)"/>
    </g>
  </g>
</g>


</svg>
