<?xml version="1.0" encoding="UTF-8"?>
<svg width="1575px" height="1563px" viewBox="0 0 1575 1563" version="1.1" xmlns="http://www.w3.org/2000/svg" xmlns:xlink="http://www.w3.org/1999/xlink">
    <!-- Generator: Sketch 51.3 (57544) - http://www.bohemiancoding.com/sketch -->
    <title>clouds_desktop</title>
    <desc>Created with Sketch.</desc>
    <defs>
        <linearGradient x1="50%" y1="-2.48949813e-15%" x2="50%" y2="91.2617413%" id="linearGradient-1">
            <stop stop-color="#EBFDFF" offset="0%"></stop>
            <stop stop-color="#D8F0FF" offset="100%"></stop>
        </linearGradient>
    </defs>
    <g id="clouds_desktop" stroke="none" stroke-width="1" fill="none" fill-rule="evenodd">
        <path d="M381.892086,324.847213 L381.892086,325 L276.417266,325 L276.417266,324.853573 C263.255294,323.462762 253,312.335267 253,298.814286 C253,284.352315 264.732394,272.628571 279.205036,272.628571 C284.747854,272.628571 289.888737,274.348189 294.122546,277.282657 C298.085143,259.940217 313.616612,247 332.172662,247 C352.548198,247 369.276933,262.602299 371.046676,282.503047 C374.868697,279.793055 379.539539,278.2 384.582734,278.2 C397.515733,278.2 408,288.676537 408,301.6 C408,314.523463 397.515733,325 384.582734,325 C383.672797,325 382.774981,324.948139 381.892086,324.847213 Z" id="1" fill="url(#linearGradient-1)"></path>
        <path d="M179.892086,77.8472132 L179.892086,78 L74.4172662,78 L74.4172662,77.8535728 C61.2552944,76.4627624 51,65.3352672 51,51.8142857 C51,37.3523151 62.7323942,25.6285714 77.205036,25.6285714 C82.7478538,25.6285714 87.8887371,27.3481891 92.1225458,30.282657 C96.0851425,12.9402168 111.616612,0 130.172662,0 C150.548198,0 167.276933,15.6022989 169.046676,35.5030468 C172.868697,32.7930547 177.539539,31.2 182.582734,31.2 C195.515733,31.2 206,41.6765369 206,54.6 C206,67.5234631 195.515733,78 182.582734,78 C181.672797,78 180.774981,77.9481389 179.892086,77.8472132 Z" id="1" fill="url(#linearGradient-1)"></path>
        <path d="M1497.89209,903.847213 L1497.89209,904 L1392.41727,904 L1392.41727,903.853573 C1379.25529,902.462762 1369,891.335267 1369,877.814286 C1369,863.352315 1380.73239,851.628571 1395.20504,851.628571 C1400.74785,851.628571 1405.88874,853.348189 1410.12255,856.282657 C1414.08514,838.940217 1429.61661,826 1448.17266,826 C1468.5482,826 1485.27693,841.602299 1487.04668,861.503047 C1490.8687,858.793055 1495.53954,857.2 1500.58273,857.2 C1513.51573,857.2 1524,867.676537 1524,880.6 C1524,893.523463 1513.51573,904 1500.58273,904 C1499.6728,904 1498.77498,903.948139 1497.89209,903.847213 Z" id="1" fill="url(#linearGradient-1)"></path>
        <path d="M304.892086,1059.84721 L304.892086,1060 L199.417266,1060 L199.417266,1059.85357 C186.255294,1058.46276 176,1047.33527 176,1033.81429 C176,1019.35232 187.732394,1007.62857 202.205036,1007.62857 C207.747854,1007.62857 212.888737,1009.34819 217.122546,1012.28266 C221.085143,994.940217 236.616612,982 255.172662,982 C275.548198,982 292.276933,997.602299 294.046676,1017.50305 C297.868697,1014.79305 302.539539,1013.2 307.582734,1013.2 C320.515733,1013.2 331,1023.67654 331,1036.6 C331,1049.52346 320.515733,1060 307.582734,1060 C306.672797,1060 305.774981,1059.94814 304.892086,1059.84721 Z" id="1" fill="url(#linearGradient-1)"></path>
        <path d="M1342.89209,487.847213 L1342.89209,488 L1237.41727,488 L1237.41727,487.853573 C1224.25529,486.462762 1214,475.335267 1214,461.814286 C1214,447.352315 1225.73239,435.628571 1240.20504,435.628571 C1245.74785,435.628571 1250.88874,437.348189 1255.12255,440.282657 C1259.08514,422.940217 1274.61661,410 1293.17266,410 C1313.5482,410 1330.27693,425.602299 1332.04668,445.503047 C1335.8687,442.793055 1340.53954,441.2 1345.58273,441.2 C1358.51573,441.2 1369,451.676537 1369,464.6 C1369,477.523463 1358.51573,488 1345.58273,488 C1344.6728,488 1343.77498,487.948139 1342.89209,487.847213 Z" id="1" fill="url(#linearGradient-1)"></path>
        <path d="M1216.89209,210.847213 L1216.89209,211 L1111.41727,211 L1111.41727,210.853573 C1098.25529,209.462762 1088,198.335267 1088,184.814286 C1088,170.352315 1099.73239,158.628571 1114.20504,158.628571 C1119.74785,158.628571 1124.88874,160.348189 1129.12255,163.282657 C1133.08514,145.940217 1148.61661,133 1167.17266,133 C1187.5482,133 1204.27693,148.602299 1206.04668,168.503047 C1209.8687,165.793055 1214.53954,164.2 1219.58273,164.2 C1232.51573,164.2 1243,174.676537 1243,187.6 C1243,200.523463 1232.51573,211 1219.58273,211 C1218.6728,211 1217.77498,210.948139 1216.89209,210.847213 Z" id="1" fill="url(#linearGradient-1)"></path>
        <path d="M128.892086,1458.84721 L128.892086,1459 L23.4172662,1459 L23.4172662,1458.85357 C10.2552944,1457.46276 0,1446.33527 0,1432.81429 C0,1418.35232 11.7323942,1406.62857 26.205036,1406.62857 C31.7478538,1406.62857 36.8887371,1408.34819 41.1225458,1411.28266 C45.0851425,1393.94022 60.6166123,1381 79.1726619,1381 C99.5481979,1381 116.276933,1396.6023 118.046676,1416.50305 C121.868697,1413.79305 126.539539,1412.2 131.582734,1412.2 C144.515733,1412.2 155,1422.67654 155,1435.6 C155,1448.52346 144.515733,1459 131.582734,1459 C130.672797,1459 129.774981,1458.94814 128.892086,1458.84721 Z" id="1" fill="url(#linearGradient-1)"></path>
        <path d="M1548.89209,77.8472132 L1548.89209,78 L1443.41727,78 L1443.41727,77.8535728 C1430.25529,76.4627624 1420,65.3352672 1420,51.8142857 C1420,37.3523151 1431.73239,25.6285714 1446.20504,25.6285714 C1451.74785,25.6285714 1456.88874,27.3481891 1461.12255,30.282657 C1465.08514,12.9402168 1480.61661,0 1499.17266,0 C1519.5482,0 1536.27693,15.6022989 1538.04668,35.5030468 C1541.8687,32.7930547 1546.53954,31.2 1551.58273,31.2 C1564.51573,31.2 1575,41.6765369 1575,54.6 C1575,67.5234631 1564.51573,78 1551.58273,78 C1550.6728,78 1549.77498,77.9481389 1548.89209,77.8472132 Z" id="1" fill="url(#linearGradient-1)"></path>
    </g>
</svg>